<svg xmlns="http://www.w3.org/2000/svg" xmlns:xlink="http://www.w3.org/1999/xlink" width="20" height="20" viewBox="0 0 20 20">
    <defs>
        <path id="a" d="M12 .5a.5.5 0 0 1 .492.41L12.5 1v1.5H16a.5.5 0 0 1 .492.41L16.5 3v14a.5.5 0 0 1-.5.5H1a.5.5 0 0 1-.5-.5V3a.5.5 0 0 1 .5-.5h3.5V1a.5.5 0 0 1 .992-.09L5.5 1v1.5h6V1a.5.5 0 0 1 .5-.5zm-.5 3h-6V4a.5.5 0 0 1-.992.09L4.5 4v-.5h-3v13h14v-13h-3V4a.5.5 0 0 1-.992.09L11.5 4v-.5zM5 13.5a.5.5 0 0 1 .5.5v1a.5.5 0 0 1-.5.5H4a.5.5 0 0 1-.5-.5v-1a.5.5 0 0 1 .5-.5zm4 0a.5.5 0 0 1 .5.5v1a.5.5 0 0 1-.5.5H8a.5.5 0 0 1-.5-.5v-1a.5.5 0 0 1 .5-.5zm4 0a.5.5 0 0 1 .5.5v1a.5.5 0 0 1-.5.5h-1a.5.5 0 0 1-.5-.5v-1a.5.5 0 0 1 .5-.5zm-8-4a.5.5 0 0 1 .5.5v1a.5.5 0 0 1-.5.5H4a.5.5 0 0 1-.5-.5v-1a.5.5 0 0 1 .5-.5zm4 0a.5.5 0 0 1 .5.5v1a.5.5 0 0 1-.5.5H8a.5.5 0 0 1-.5-.5v-1a.5.5 0 0 1 .5-.5zm4 0a.5.5 0 0 1 .5.5v1a.5.5 0 0 1-.5.5h-1a.5.5 0 0 1-.5-.5v-1a.5.5 0 0 1 .5-.5zm-8-4a.5.5 0 0 1 .5.5v1a.5.5 0 0 1-.5.5H4a.5.5 0 0 1-.5-.5V6a.5.5 0 0 1 .5-.5zm4 0a.5.5 0 0 1 .5.5v1a.5.5 0 0 1-.5.5H8a.5.5 0 0 1-.5-.5V6a.5.5 0 0 1 .5-.5zm4 0a.5.5 0 0 1 .5.5v1a.5.5 0 0 1-.5.5h-1a.5.5 0 0 1-.5-.5V6a.5.5 0 0 1 .5-.5z"/>
    </defs>
    <g fill="none" fill-rule="evenodd" transform="translate(2 1)">
        <mask id="b" fill="#fff">
            <use xlink:href="#a"/>
        </mask>
        <use fill="#979797" fill-rule="nonzero" xlink:href="#a"/>
        <g fill="#131415" mask="url(#b)">
            <path d="M-2-1h20v20H-2z"/>
        </g>
    </g>
</svg>
