<svg xmlns="http://www.w3.org/2000/svg" xmlns:xlink="http://www.w3.org/1999/xlink" width="38" height="48" viewBox="0 0 38 48">
    <defs>
        <path id="b" d="M0 0h21a9 9 0 0 1 9 9v31H0V0z"/>
        <filter id="a" width="146.7%" height="135%" x="-23.3%" y="-12.5%" filterUnits="objectBoundingBox">
            <feOffset dy="2" in="SourceAlpha" result="shadowOffsetOuter1"/>
            <feGaussianBlur in="shadowOffsetOuter1" result="shadowBlurOuter1" stdDeviation="2"/>
            <feColorMatrix in="shadowBlurOuter1" values="0 0 0 0 0 0 0 0 0 0 0 0 0 0 0 0 0 0 0.2 0"/>
        </filter>
        <path id="c" d="M.295.29a1 1 0 0 1 1.32-.079l.094.084 6.96 7a1 1 0 0 1 .083 1.316l-.082.094-6.96 7A1 1 0 0 1 .207 14.39l.083-.094 6.258-6.296L.291 1.705A1 1 0 0 1 .21.385L.295.29z"/>
    </defs>
    <g fill="none" fill-rule="evenodd">
        <g transform="matrix(-1 0 0 1 34 2)">
            <use fill="#000" filter="url(#a)" xlink:href="#b"/>
            <use fill="#4C5057" xlink:href="#b"/>
        </g>
        <g transform="matrix(-1 0 0 1 22 14)">
            <mask id="d" fill="#fff">
                <use xlink:href="#c"/>
            </mask>
            <use fill="#F6F6F6" fill-rule="nonzero" xlink:href="#c"/>
            <g fill="#FFF" mask="url(#d)">
                <path d="M-6-2h20v20H-6z"/>
            </g>
        </g>
    </g>
</svg>
