<svg xmlns="http://www.w3.org/2000/svg" xmlns:xlink="http://www.w3.org/1999/xlink" width="42" height="42" viewBox="0 0 42 42">
    <defs>
        <path id="a" d="M14.503 3.96c.393 0 .7.337.664.728l-1.374 14.614a.667.667 0 0 1-.664.604H2.64a.667.667 0 0 1-.663-.6L.506 4.693a.667.667 0 0 1 .664-.734zm-.732 1.332H1.905l1.336 13.28h9.282l1.248-13.28zM8 7.333c.328 0 .6.236.656.547l.011.12v9.333a.667.667 0 0 1-1.322.12l-.011-.12V8c0-.368.298-.667.666-.667zm3.04.013a.667.667 0 0 1 .615.592l.003.12-.651 9.31a.667.667 0 0 1-1.328.028l-.002-.12.65-9.311a.667.667 0 0 1 .712-.619zm-6.078 0a.667.667 0 0 1 .692.5l.02.119.65 9.31a.667.667 0 0 1-1.31.212l-.02-.119-.65-9.31a.667.667 0 0 1 .618-.712zm10.384-5.213a.667.667 0 0 1 .12 1.323l-.12.01H.68a.667.667 0 0 1-.12-1.322l.12-.01h14.667zM10 0a.667.667 0 0 1 .12 1.323l-.12.01h-4a.667.667 0 0 1-.12-1.322L6.002 0h4z"/>
    </defs>
    <g fill="none" fill-rule="evenodd" transform="translate(1 1)">
        <rect width="40" height="40" stroke="#4C5057" stroke-width="2" rx="20"/>
        <g transform="translate(12 10)">
            <mask id="b" fill="#fff">
                <use xlink:href="#a"/>
            </mask>
            <use fill="#979797" fill-rule="nonzero" xlink:href="#a"/>
            <g fill="#4C5057" mask="url(#b)">
                <path d="M-2 0h21v20H-2z"/>
            </g>
        </g>
    </g>
</svg>
