<svg xmlns="http://www.w3.org/2000/svg" xmlns:xlink="http://www.w3.org/1999/xlink" width="50" height="50" viewBox="0 0 50 50">
    <defs>
        <circle id="a" cx="25" cy="25" r="25"/>
        <path id="c" d="M13.22 0a3.486 3.486 0 0 1 3.485 3.276l.006.204v5.398c0 .64-.521 1.16-1.164 1.16a1.162 1.162 0 0 1-1.155-1.024l-.008-.136V3.48c0-.595-.45-1.085-1.028-1.152l-.136-.008H3.913c-.597 0-1.089.448-1.156 1.025l-.008.135v22.04c0 .595.45 1.085 1.028 1.152l.136.008h9.307c.597 0 1.089-.448 1.156-1.025l.008-.135v-5.064c0-.641.52-1.16 1.163-1.16.597 0 1.089.447 1.156 1.024l.008.136v5.064a3.485 3.485 0 0 1-3.286 3.474L13.22 29H3.913a3.486 3.486 0 0 1-3.485-3.276l-.005-.204V3.48A3.485 3.485 0 0 1 3.708.006L3.913 0h9.307zm6.193 8.423a1.166 1.166 0 0 1 1.644.078l5.366 5.882-5.366 5.883-.105.102c-.439.375-1.1.374-1.539-.024l-.101-.105a1.158 1.158 0 0 1 .023-1.534l2.868-3.145-14.99.1a1.162 1.162 0 0 1-1.171-1.152 1.161 1.161 0 0 1 1.02-1.16l.135-.008 15.038-.1-2.9-3.179-.091-.113a1.158 1.158 0 0 1 .17-1.525z"/>
    </defs>
    <g fill="none" fill-rule="evenodd">
        <g>
            <mask id="b" fill="#fff">
                <use xlink:href="#a"/>
            </mask>
            <use fill="#A9A9A9" xlink:href="#a"/>
            <g fill="#F6F6F6" mask="url(#b)">
                <path d="M0 0h50v50H0z"/>
            </g>
        </g>
        <g transform="translate(15 11)">
            <mask id="d" fill="#fff">
                <use xlink:href="#c"/>
            </mask>
            <use fill="#979797" fill-rule="nonzero" xlink:href="#c"/>
            <g fill="#131415" mask="url(#d)">
                <path d="M-.577 0h28v30h-28z"/>
            </g>
        </g>
    </g>
</svg>
