<svg xmlns="http://www.w3.org/2000/svg" width="36" height="48" viewBox="0 0 36 48">
    <g fill="#FFFFFE" fill-rule="evenodd">
        <path d="M9.926 5.23a4.814 4.814 0 1 1-9.628 0 4.814 4.814 0 0 1 9.628 0M35.221 5.23a4.815 4.815 0 1 1-9.629 0 4.815 4.815 0 0 1 9.63 0M22.574 5.23a4.814 4.814 0 1 1-9.628 0 4.814 4.814 0 0 1 9.628 0M9.926 17.877a4.814 4.814 0 1 1-9.628.001 4.814 4.814 0 0 1 9.628 0M35.221 17.877a4.815 4.815 0 1 1-9.629 0 4.815 4.815 0 0 1 9.63 0M22.574 17.877a4.814 4.814 0 1 1-9.628.001 4.814 4.814 0 0 1 9.628 0M9.926 30.525a4.815 4.815 0 1 1-9.629 0 4.815 4.815 0 0 1 9.63 0M35.221 30.525a4.815 4.815 0 1 1-9.63-.002 4.815 4.815 0 0 1 9.63.002M22.574 30.525a4.815 4.815 0 1 1-9.63 0 4.815 4.815 0 0 1 9.63 0M22.574 43.171a4.814 4.814 0 1 1-9.628.001 4.814 4.814 0 0 1 9.628-.001"/>
    </g>
</svg>
