<svg xmlns="http://www.w3.org/2000/svg" version="1.1" xmlns:xlink="http://www.w3.org/1999/xlink" xmlns:svgjs="http://svgjs.com/svgjs" width="1440" height="560" preserveAspectRatio="none" viewBox="0 0 1440 560"><g mask="url(&quot;#SvgjsMask1000&quot;)" fill="none"><rect width="1440" height="560" x="0" y="0" fill="#0e2a47"></rect><path d="M612.84 343.31L661.94 343.31L661.94 392.41L612.84 392.41z" fill="rgba(66, 82, 90, 1)"></path><path d="M999.45 75.19L1011.08 75.19L1011.08 117.08L999.45 117.08z" fill="rgba(66, 82, 90, 1)"></path><path d="M151.43 464.9 a23.93 23.93 0 1 0 47.86 0 a23.93 23.93 0 1 0 -47.86 0z" fill="#d3b714"></path><path d="M1106.42 202.74L1122.53 202.74L1122.53 246.37L1106.42 246.37z" stroke="#d3b714"></path><path d="M99.35 193.97L119.99 193.97L119.99 228.97L99.35 228.97z" fill="#d3b714"></path><path d="M1173.23 362.1L1194.79 362.1L1194.79 378.82L1173.23 378.82z" stroke="rgba(66, 82, 90, 1)"></path><path d="M869.68 8.33L912.27 8.33L912.27 22.58L869.68 22.58z" fill="#d3b714"></path><path d="M50.3 543.69L103.52 543.69L103.52 549.4L50.3 549.4z" stroke="rgba(66, 82, 90, 1)"></path><path d="M1003.82 436.86L1020.63 436.86L1020.63 453.67L1003.82 453.67z" stroke="rgba(90, 73, 66, 1)"></path><path d="M1129.54 190.74 a33.13 33.13 0 1 0 66.26 0 a33.13 33.13 0 1 0 -66.26 0z" fill="rgba(66, 82, 90, 1)"></path><path d="M166.23 381.72L188.43 381.72L188.43 403.92L166.23 403.92z" fill="#d3b714"></path><path d="M753.44 267.45a35.03 35.03 0 1 0-70 2.89z" stroke="#d3b714"></path><path d="M355.27 301.22L395.57 301.22L395.57 341.52L355.27 341.52z" stroke="#d3b714"></path><path d="M1116.15 540.66L1171.85 540.66L1171.85 585.24L1116.15 585.24z" fill="rgba(66, 82, 90, 1)"></path><path d="M1291.1 85.67 a52.27 52.27 0 1 0 104.54 0 a52.27 52.27 0 1 0 -104.54 0z" stroke="rgba(90, 73, 66, 1)"></path><path d="M1102.8 551.21L1107.91 551.21L1107.91 556.32L1102.8 556.32z" fill="rgba(66, 82, 90, 1)"></path><path d="M420.61 230.84L471.23 230.84L471.23 244.7L420.61 244.7z" stroke="rgba(90, 73, 66, 1)"></path><path d="M1242.69 151.78 a30.89 30.89 0 1 0 61.78 0 a30.89 30.89 0 1 0 -61.78 0z" stroke="#d3b714"></path><path d="M1373.39 192.64a32.82 32.82 0 1 0-62.08-21.31z" stroke="#d3b714"></path><path d="M759.26 74.09 a9.85 9.85 0 1 0 19.7 0 a9.85 9.85 0 1 0 -19.7 0z" fill="rgba(66, 82, 90, 1)"></path><path d="M1367.95 90.59a11.26 11.26 0 1 0 1.65 22.46z" fill="#037b0b"></path><path d="M969.29 213.97 a30.6 30.6 0 1 0 61.2 0 a30.6 30.6 0 1 0 -61.2 0z" fill="rgba(90, 73, 66, 1)"></path><path d="M650.79 62.05a5.84 5.84 0 1 0-4.44 10.8z" fill="rgba(90, 73, 66, 1)"></path><path d="M650.25 349.76a33.91 33.91 0 1 0-66.02 15.53z" fill="#037b0b"></path><path d="M620.45 81.85a31.15 31.15 0 1 0-40.59-47.26z" fill="#d3b714"></path><path d="M1326.47 527.61a32.78 32.78 0 1 0-2.95-65.49z" stroke="rgba(90, 73, 66, 1)"></path><path d="M1248.75 282.31 a15.5 15.5 0 1 0 31 0 a15.5 15.5 0 1 0 -31 0z" fill="rgba(66, 82, 90, 1)"></path><path d="M378.85 234.28L420.29 234.28L420.29 275.72L378.85 275.72z" fill="#037b0b"></path><path d="M1178.03 37.06 a20.78 20.78 0 1 0 41.56 0 a20.78 20.78 0 1 0 -41.56 0z" stroke="rgba(66, 82, 90, 1)"></path><path d="M523 115.64 a17.37 17.37 0 1 0 34.74 0 a17.37 17.37 0 1 0 -34.74 0z" fill="#037b0b"></path><path d="M955.34 488.51L995.95 488.51L995.95 529.12L955.34 529.12z" fill="rgba(66, 82, 90, 1)"></path><path d="M351.25 459.31L366.95 459.31L366.95 475.01L351.25 475.01z" stroke="#d3b714"></path><path d="M347.05 176.74 a39.15 39.15 0 1 0 78.3 0 a39.15 39.15 0 1 0 -78.3 0z" fill="#037b0b"></path></g><defs><mask id="SvgjsMask1000"><rect width="1440" height="560" fill="#ffffff"></rect></mask></defs></svg>